# xmcd
#
# Track frame offsets:
#       150
#       18601
#       33226
#       48901
#       60302
#       76802
#       96524
#       127500
#       146400
#       171075
#
# Disc length: 2534 seconds
#
# Revision: 2
# Processed by: cddbd v1.5.1PL2 Copyright (c) Steve Scherf et al.
# Submitted via: MusiCat 1.1
#
DISCID=7209e40a
DTITLE=Nina Simone - Little Girl Blue
DYEAR=1967
DGENRE=
TTITLE0=Mood Indigo
TTITLE1=Don't Smoke in Bed
TTITLE2=Love Me or Leave Me
TTITLE3=He Needs Me
TTITLE4=My Baby Just Cares for Me
TTITLE5=Little Girl Blue
TTITLE6=Central Park Blues
TTITLE7=I Loves You Porgy
TTITLE8=Good Bait
TTITLE9=Plain Gold Ring
EXTD=Polydor\n\nRereleased on on vinyl on 'Ninety Nine' Label in UK in 1970 
EXTT0=
EXTT1=
EXTT2=
EXTT3=
EXTT4=
EXTT5=
EXTT6=
EXTT7=
EXTT8=
EXTT9=
PLAYORDER=
